<svg xmlns="http://www.w3.org/2000/svg" xmlns:xlink="http://www.w3.org/1999/xlink" version="1.1" id="Layer_1" x="0px" y="0px" viewBox="0 0 512 512" style="enable-background:new 0 0 512 512;" xml:space="preserve" width="512px" height="512px">
<g>
	<g>
		<g>
			<path d="M411.826,49.469h-81.623h-30.918v-6.184C299.285,19.418,279.867,0,256,0s-43.285,19.418-43.285,43.285v6.184h-30.918     h-81.623c-6.829,0-12.367,5.537-12.367,12.367v437.797c0,6.83,5.538,12.367,12.367,12.367h311.652     c6.829,0,12.367-5.537,12.367-12.367V61.836C424.193,55.005,418.655,49.469,411.826,49.469z M237.449,43.285     c0-10.229,8.322-18.551,18.551-18.551s18.551,8.322,18.551,18.551v6.184h-37.101V43.285z M194.164,74.203h123.672v30.918H194.164     V74.203z M399.459,487.266H112.541V74.203h56.889v43.285c0,6.83,5.538,12.367,12.367,12.367h148.406     c6.829,0,12.367-5.537,12.367-12.367V74.203h56.889V487.266z" fill="#599a42"/>
			<path d="M225.922,190.675l-47.217,47.217l-20.318-20.318c-4.831-4.829-12.659-4.829-17.491,0c-4.829,4.829-4.829,12.66,0,17.491     l29.063,29.063c2.415,2.415,5.58,3.622,8.745,3.622c3.165,0,6.329-1.207,8.745-3.622l55.961-55.961     c4.829-4.829,4.829-12.66,0-17.491C238.581,185.845,230.752,185.845,225.922,190.675z" fill="#3d61ad"/>
			<path d="M257.237,239.923c0,6.83,5.538,12.367,12.367,12.367h90.28c6.829,0,12.367-5.537,12.367-12.367     c0-6.83-5.538-12.367-12.367-12.367h-90.28C262.775,227.556,257.237,233.092,257.237,239.923z" fill="#599a42"/>
			<path d="M225.922,271.371l-47.217,47.216l-20.318-20.318c-4.831-4.829-12.659-4.829-17.491,0c-4.829,4.829-4.829,12.66,0,17.491     l29.063,29.063c2.415,2.415,5.58,3.622,8.745,3.622c3.165,0,6.329-1.207,8.745-3.622l55.961-55.961     c4.829-4.829,4.829-12.66,0-17.491C238.581,266.541,230.752,266.541,225.922,271.371z" fill="#3d61ad"/>
			<path d="M359.884,307.942h-90.28c-6.829,0-12.367,5.537-12.367,12.367s5.538,12.367,12.367,12.367h90.28     c6.829,0,12.367-5.537,12.367-12.367C372.251,313.479,366.713,307.942,359.884,307.942z" fill="#599a42"/>
			<path d="M225.922,352.067l-47.217,47.217l-20.318-20.318c-4.831-4.829-12.659-4.829-17.491,0c-4.829,4.829-4.829,12.66,0,17.491     l29.063,29.063c2.415,2.415,5.58,3.622,8.745,3.622c3.165,0,6.329-1.207,8.745-3.622l55.961-55.961     c4.829-4.829,4.829-12.66,0-17.491C238.581,347.236,230.752,347.236,225.922,352.067z" fill="#3d61ad"/>
			<path d="M359.884,389.565h-90.28c-6.829,0-12.367,5.537-12.367,12.367s5.538,12.367,12.367,12.367h90.28     c6.829,0,12.367-5.537,12.367-12.367S366.713,389.565,359.884,389.565z" fill="#599a42"/>
		</g>
	</g>
</g>
</svg>
