<?xml version="1.0" encoding="UTF-8" standalone="no"?>
<svg
   xmlns:dc="http://purl.org/dc/elements/1.1/"
   xmlns:cc="http://creativecommons.org/ns#"
   xmlns:rdf="http://www.w3.org/1999/02/22-rdf-syntax-ns#"
   xmlns:svg="http://www.w3.org/2000/svg"
   xmlns="http://www.w3.org/2000/svg"
   xmlns:sodipodi="http://sodipodi.sourceforge.net/DTD/sodipodi-0.dtd"
   xmlns:inkscape="http://www.inkscape.org/namespaces/inkscape"
   id="svg3518"
   viewBox="0 0 866.6 472.12"
   version="1.0"
   sodipodi:docname="russia.svg"
   inkscape:version="0.92.1 r15371">
  <metadata
     id="metadata3687">
    <rdf:RDF>
      <cc:Work
         rdf:about="">
        <dc:format>image/svg+xml</dc:format>
        <dc:type
           rdf:resource="http://purl.org/dc/dcmitype/StillImage" />
        <dc:title></dc:title>
      </cc:Work>
    </rdf:RDF>
  </metadata>
  <defs
     id="defs3685" />
  <sodipodi:namedview
     pagecolor="#ffffff"
     bordercolor="#666666"
     borderopacity="1"
     objecttolerance="10"
     gridtolerance="10"
     guidetolerance="10"
     inkscape:pageopacity="0"
     inkscape:pageshadow="2"
     inkscape:window-width="1920"
     inkscape:window-height="1017"
     id="namedview3683"
     showgrid="false"
     inkscape:zoom="0.64"
     inkscape:cx="179.8964"
     inkscape:cy="172.27129"
     inkscape:window-x="-8"
     inkscape:window-y="-8"
     inkscape:window-maximized="1"
     inkscape:current-layer="svg3518"
     showguides="true"
     inkscape:guide-bbox="true" />
  <g
     id="layer1"
     transform="translate(-82.74777,-143.36864)">
    <path
       style="fill:#3d61ad;stroke:#599a42;stroke-width:0"
       d="m 834.25,618.05 c 3.23107,-12.5831 -15.92358,-29.77303 5.56875,-34.71125 -0.40925,-14.89334 -1.79619,-56.64617 -18.61375,-29.505 -10.75422,24.1397 -25.13853,-12.60069 -43.5625,-0.39375 -23.93637,-4.18929 -7.53651,-23.42117 -35.68047,-29.45641 -21.84762,-3.84896 -38.20954,10.07087 -29.74203,28.56641 5.06468,34.3674 -20.1052,28.9502 -41.26,28.2 -16.50796,27.21537 -45.63383,10.50704 -68.01406,6.11609 -21.26681,14.7713 -49.25162,-47.47684 -56.64719,-5.69484 -0.61808,36.30502 -34.99419,-13.40215 -53.7525,4.7375 -18.95596,14.35684 -45.31012,2.98071 -53.68625,-19.46875 -21.47985,-3.94101 -29.98113,-4.38762 -29.27,-30.95 -4.67911,-22.95191 -4.58445,-22.459 -27.39,-21.3 -3.53025,-9.66542 -18.46307,-13.89413 -14.18,-28.44 -19.58065,-1.65928 -53.6917,-18.52144 -67.465,-11.75875 5.16599,11.26882 -8.86377,2.37753 -13.01828,11.53594 -7.89188,-3.59165 3.26589,29.22766 -14.95672,9.88281 -6.98803,-15.2837 -31.82373,-18.58138 -32.31,-29.05 -0.45116,-20.03446 -27.68511,-31.32892 -41.04828,-16.5475 -2.25391,-20.07009 -28.15845,-1.27332 -27.96172,9.7325 9.86225,16.49205 -0.1672,31.42785 -19.8,22.645 -26.21631,2.08496 4.83844,23.27758 -17.89375,21.06875 C 125.82344,542.29876 114.77056,498.40358 111.47,484.11 101.63961,463.89563 88.901279,443.28418 91.15533,418.84727 87.350013,405.78028 112.02447,429.65789 112.74,412.33 c 15.46029,11.58446 2.01497,-11.81994 20.795,1.0775 32.78016,-11.6293 -2.96273,-38.6816 9.025,-55.7575 8.50762,-7.18671 2.31227,-18.38227 -2.48711,-25.36287 8.56196,-13.03602 21.55078,9.19696 21.66727,-15.81963 20.31131,-11.31978 -3.34404,-32.08223 21.24984,-40.9675 4.11402,3.80517 26.54134,-13.70462 32.69812,-1.92625 -5.48756,-27.73007 40.30095,6.71311 41.94188,-21.61375 14.23016,-13.21552 35.06129,-22.1389 47.29,-36.67 25.48384,0.18451 24.51139,47.25384 10.68,60.49 -24.38782,7.15583 -15.30843,-61.34255 -27.09375,-17.06375 -22.64732,6.17687 -11.8066,41.72175 0.16875,16.33 -2.37455,25.82867 26.43752,-3.91431 32.915,16.62375 4.64291,-6.69915 33.37994,-26.20817 19.78,-7.08 -22.72942,5.2139 6.74507,18.46952 19.36891,12.28047 17.81592,1.84218 9.2915,15.46286 32.99984,16.10328 2.2088,11.7185 22.98668,-15.1722 24.96125,13.21625 13.6374,32.02769 12.39344,-5.2879 18.6475,-17.66375 11.15536,-14.44644 38.37178,-17.22133 19.7,5.4675 -6.42174,17.15289 -7.97825,52.16448 -32.0375,46.88625 -9.23401,14.30444 32.38537,2.03275 34.7,-12.81 3.34527,3.97131 4.631,29.57933 9.74,20.72 -6.77166,-9.56648 3.85802,-25.35703 -14.42906,-29.26484 1.81451,-12.91867 22.91538,-48.29756 15.81281,-17.83266 20.92488,18.24552 -5.88717,-13.50244 12.13125,-4.4475 2.51509,-10.90662 22.26615,10.7995 11.05625,17.0925 -0.35309,10.86613 4.86914,23.97565 4.9975,3.63 4.93162,-16.8339 -13.89719,-46.76402 17.92125,-33.4775 2.48104,-8.86731 18.68544,-29.65439 32.88,-23.46625 21.89497,0.3769 24.03919,-34.57849 35.7175,-6.9475 25.21584,-12.28026 24.74766,23.67595 5.1025,34.13375 -17.4067,22.02892 17.73116,-13.16421 23.44,-0.33 8.75743,-13.30443 36.27143,8.41199 35.37625,-14.06109 19.00408,-6.81269 18.94954,10.01799 26.16,18.00859 18.7452,12.24628 5.96108,-12.07779 20.81375,-11.4575 25.67967,3.07162 -1.52079,-28.42087 24.55,-29.83 9.4929,13.09081 11.18558,-16.99853 23.8,-5.35 19.71892,1.23148 24.86021,-28.39599 45.455,-14.885 5.23755,-15.37396 24.05419,-24.54042 31.65625,-32.40625 -26.37501,-9.9525 19.12026,-40.14914 34.18875,-45.31875 6.01711,-7.97736 28.80436,-0.76743 16.28,-11.81 6.42518,-17.81066 18.97886,-8.06535 19.20875,1.4925 25.14735,2.38901 -10.82194,24.86038 -17.83875,25.7975 -8.02551,2.8904 20.05907,18.2826 4.25125,30.31625 6.70573,-9.87098 45.31393,-5.66994 23.30469,5.10203 6.69892,25.54666 12.51083,48.32244 -1.38094,69.69797 -14.8781,6.90557 1.9616,42.08701 13.565,36.31375 7.58621,6.86878 18.53486,4.54509 11.52969,16.33187 20.54695,14.02603 7.44809,40.36273 22.43031,61.13813 -16.29094,2.09815 -60.44874,-31.46857 -57.26625,-55.30453 -6.36819,-24.22537 -2.87299,-48.78543 -18.9275,-68.59547 -10.40567,11.56417 12.25728,38.9931 -10.59125,29.855 -22.28418,11.39724 -2.78079,48.58045 1.415,46.155 -14.66481,7.85988 -28.37526,19.73909 -40.3325,30.705 -22.03159,18.53649 -19.50896,64.81617 -20.3175,85.755 10.76713,-3.03337 22.39359,10.66647 23.37,-5.15 24.32613,-16.51966 33.74677,32.99279 43.3175,50.16 -3.55357,28.47542 9.84474,76.73037 -22.4275,88.46 -9.65912,-6.93328 -8.13716,17.81639 -11.42,9.05 z m 70.26,-72.58 c -12.51508,-23.56434 -28.87476,-49.31853 -49.02,-66.84 -8.53624,-12.85023 -17.47043,-44.73543 0.75125,-17.93875 11.89379,14.30936 28.74143,30.0594 48.07704,40.20765 -25.66272,-0.93315 -1.72365,33.11289 14.68515,38.29251 -5.08904,-2.08556 -7.78499,5.20931 -11.01297,9.56547 z m -6.58,-4.88 c 1.53777,-6.55826 0.79513,5.41205 0,0 z M 396.88,287.41 c -11.64763,-13.98514 1.54471,-33.18071 17.35875,-23.08875 -14.12571,-0.99809 -9.70245,38.226 -17.35875,23.08875 z m 19.37,-26.39 c 4.663,-15.80481 33.10284,-18.29297 49,-13.56 24.52821,8.51156 -30.66327,4.05312 -38.78,11.77 -4.22684,-1.41372 -7.67155,9.33061 -10.22,1.79 z"
       id="path3628"
       inkscape:connector-curvature="0" />
  </g>
  <path
     style="fill:#000000"
     d=""
     id="path3717"
     inkscape:connector-curvature="0" />
  <g
     id="g35785"
     transform="matrix(2.0371617,0,0,2.0371617,-719.6902,-373.29316)"
     style="fill:#ffffff">
    <g
       id="g35813"
       style="fill:#ffffff">
      <path
         sodipodi:nodetypes="ccsccscc"
         inkscape:connector-curvature="0"
         id="path32066"
         d="m 615.0901,355.44878 0.10858,-9.71694 c 0,0 -16.78724,2.75127 -17.00088,-9.53452 -0.22073,-12.69384 16.89209,-9.35686 16.89209,-9.35686 l 0.10358,-8.6691 c -12.42838,-1.03147 -24.9028,3.83039 -25.06403,17.63098 -0.17645,15.10352 13.14633,19.56431 24.96062,19.64646 z"
         style="fill:#ffffff;fill-opacity:1" />
      <path
         sodipodi:nodetypes="cccccccc"
         inkscape:connector-curvature="0"
         id="path32074"
         d="m 641.05812,355.44878 -18.89403,-19.1068 c 0,0 13.05035,-12.45321 18.19601,-18.10803 0,0 -10.49458,-0.089 -11.94251,0 l -13.19663,13.67242 -0.1225,9.67656 c 4.88381,4.34105 13.91078,13.791 13.91078,13.791 z"
         style="fill:#ffffff;fill-opacity:1" />
      <path
         inkscape:connector-curvature="0"
         id="path31644"
         d="m 610.31868,286.79629 c 6.53991,-2.60132 13.43574,1.22689 18.11942,5.68077 10.88575,7.83349 21.96594,15.39833 32.76779,23.34666 4.94923,4.57468 3.04177,11.93318 1.04723,17.47444 -4.405,12.38434 -8.00964,25.04491 -12.63625,37.34755 -1.34957,6.52355 -8.05205,8.94143 -13.85235,8.09792 -16.02591,-0.22942 -31.85168,0.40182 -48.01841,-0.2271 -6.9039,-3.74386 -8.31844,-12.42917 -10.85591,-19.06709 -3.45391,-10.42632 -6.82842,-20.88545 -10.32889,-31.29197 -1.84626,-5.89315 0.64544,-12.43447 6.34805,-15.03966 12.31611,-8.75593 24.66421,-17.51737 37.0397,-26.15813 l 0.24676,-0.1091 z m 29.92743,84.82257 c 2.40322,-1.5422 5.18541,-10.81329 7.65211,-17.76492 3.33826,-9.40784 6.24479,-18.98927 9.42615,-28.43484 0.35416,-6.09333 -6.411,-8.2431 -10.35215,-11.39976 -9.83993,-6.96276 -19.60056,-14.08028 -29.51712,-20.90753 -5.23088,-1.61966 -8.96404,3.6617 -13.05426,5.98082 -9.9221,7.00963 -19.67713,14.25838 -29.76211,21.03549 -3.51062,4.78743 0.16791,10.43691 1.85539,15.15592 3.38889,11.2432 8.75539,24.20901 12.38871,35.38488 1.97773,2.03256 3.41269,1.06785 13.62338,1.48812 12.39578,0.0502 23.68681,-0.21616 36.08262,-0.19296 z"
         style="fill:#ffffff;fill-opacity:1"
         sodipodi:nodetypes="ccccccccccccccscccccccccc" />
    </g>
  </g>
</svg>
