<svg xmlns="http://www.w3.org/2000/svg" xmlns:xlink="http://www.w3.org/1999/xlink" version="1.1" id="Capa_1" x="0px" y="0px" viewBox="0 0 339.456 339.456" style="enable-background:new 0 0 339.456 339.456;" xml:space="preserve" width="512px" height="512px">
<g>
	<g>
		<path d="M297.728,0h-256c-3.072,0-5.12,2.048-5.12,5.12v329.216c0,3.072,2.048,5.12,5.12,5.12h256c3.072,0,5.12-2.048,5.12-5.12    V5.12C302.848,2.048,300.8,0,297.728,0z M292.608,329.216H46.848V10.24h245.76V329.216z" fill="#777"/>
	</g>
</g>
<g>
	<g>
		<path d="M273.664,23.04H65.28c-3.072,0-5.12,2.048-5.12,5.12v282.624c0,3.072,2.048,5.12,5.12,5.12h208.384    c3.072,0,5.12-2.048,5.12-5.12V28.16C278.784,25.6,276.736,23.04,273.664,23.04z M70.4,33.28h93.696v178.176H70.4V33.28z     M268.544,305.664H70.4v-83.968h198.144V305.664z M268.544,211.456h-94.208V33.28h94.208V211.456z" fill="#777"/>
	</g>
</g>
</svg>
