<svg xmlns="http://www.w3.org/2000/svg" width="512" height="512"><g transform="matrix(-1 0 0 1 512 0)"><path d="M166.28 271.93c0 43.101-34.939 78.04-78.04 78.04S10.2 315.03 10.2 271.93h156.08z" data-original="#FFAD61" data-old_color="#599a42" fill="#599a42"/><circle cx="88.244" cy="120.993" r="16.824" data-original="#D35B38" data-old_color="#599a42" fill="#599a42"/><path d="M501.801 198.667c0 43.101-34.939 78.04-78.04 78.04s-78.04-34.939-78.04-78.04h156.08z" data-original="#FFAD61" data-old_color="#599a42" fill="#599a42"/><circle cx="423.757" cy="47.727" r="16.824" data-original="#D35B38" data-old_color="#599a42" fill="#599a42"/><path data-original="#BCC987" data-old_color="#3d61ad" fill="#3d61ad" d="M166.278 442.87h180.506v38.224H166.278z"/><path data-original="#BCC987" data-old_color="#3d61ad" fill="#3d61ad" d="M203.444 406.775h106.174v36.1H203.444z"/><path data-original="#FFE6B8" data-old_color="#3d61ad" fill="#3d61ad" d="M239.538 108.418h33.974v298.357h-33.974z"/><circle cx="256.53" cy="84.154" r="28.503" data-original="#D35B38" data-old_color="#599a42" fill="#599a42"/><path d="M501.801 188.468h-6.834c-6.659-33.785-40.813-93.27-55.933-118.465 7.089-4.876 11.749-13.041 11.749-22.276 0-14.9-12.123-27.023-27.023-27.023s-27.022 12.122-27.022 27.023c0 9.235 4.66 17.4 11.749 22.276-15.119 25.195-49.273 84.68-55.932 118.465h-6.834c-5.632 0-10.199 4.566-10.199 10.199 0 48.655 39.584 88.239 88.239 88.239S512 247.323 512 198.667c0-5.633-4.567-10.199-10.199-10.199zM423.76 41.103c3.652 0 6.624 2.972 6.624 6.624s-2.972 6.623-6.624 6.623c-3.652 0-6.623-2.971-6.623-6.623s2.97-6.624 6.623-6.624zm-.016 43.1c17.259 29.132 43.912 77.658 50.468 104.265H373.34c6.189-24.912 30.17-70.259 50.404-104.265zm.016 182.305c-33.941 0-62.142-25.055-67.076-57.642h134.153c-4.935 32.587-33.134 57.642-67.077 57.642z" data-original="#4D3D36" class="active-path" data-old_color="#3d61ad" fill="#3d61ad"/><path d="M346.782 432.674h-26.964v-25.902c0-5.633-4.567-10.199-10.199-10.199h-25.902V111.67c6.671-6.594 10.968-15.585 11.466-25.562l43.126-9.28c5.507-1.185 9.011-6.61 7.826-12.117-1.186-5.507-6.611-9.007-12.117-7.825l-43.227 9.303c-6.485-12.312-19.405-20.731-34.261-20.731-20.573 0-37.441 16.136-38.628 36.416l-107.84 23.206c-4.92-6.729-12.867-11.111-21.822-11.111-14.9 0-27.023 12.122-27.023 27.023 0 9.235 4.66 17.401 11.749 22.276-15.12 25.195-49.273 84.68-55.932 118.465H10.2c-5.634 0-10.2 4.566-10.2 10.199 0 48.655 39.584 88.239 88.239 88.239s88.239-39.584 88.239-88.239c0-5.633-4.566-10.199-10.199-10.199h-6.834c-6.659-33.786-40.813-93.27-55.932-118.465 6.074-4.177 10.36-10.768 11.465-18.379l107.141-23.055a38.94 38.94 0 0 0 7.225 9.838v284.904h-25.901c-5.633 0-10.199 4.566-10.199 10.199v25.902H166.28c-5.633 0-10.199 4.566-10.199 10.199v38.221c0 5.633 4.566 10.199 10.199 10.199h180.502c5.632 0 10.199-4.566 10.199-10.199v-38.224c0-5.633-4.567-10.199-10.199-10.199zm-90.251-366.82c10.093 0 18.303 8.21 18.303 18.303s-8.211 18.303-18.303 18.303-18.303-8.21-18.303-18.303 8.21-18.303 18.303-18.303zM88.239 114.366c3.652 0 6.624 2.972 6.624 6.624s-2.972 6.623-6.624 6.623-6.624-2.971-6.624-6.623 2.972-6.624 6.624-6.624zm0 225.405c-33.942 0-62.142-25.055-67.076-57.642h134.152c-4.934 32.587-33.134 57.642-67.076 57.642zm-50.42-78.04c6.19-24.912 30.171-70.259 50.405-104.265 17.258 29.132 43.911 77.658 50.467 104.265H37.819zm211.923-139.48c2.206.393 4.472.609 6.79.609 2.317 0 4.583-.216 6.789-.608v274.322h-13.578V122.251zm49.678 294.72v15.703h-85.779v-15.703h85.779zm37.163 36.101v17.825H176.479v-17.825h160.104zm31.424-382.238c.711 0 1.433-.074 2.156-.23l7.432-1.599c5.506-1.185 9.01-6.61 7.825-12.117-1.185-5.507-6.611-9.01-12.118-7.825l-7.432 1.599c-5.506 1.185-9.01 6.61-7.825 12.117 1.031 4.785 5.259 8.055 9.962 8.055z" data-original="#4D3D36" class="active-path" data-old_color="#3d61ad" fill="#3d61ad"/></g></svg>