<svg xmlns="http://www.w3.org/2000/svg" viewBox="0 0 512 512"><path fill="#3d61ad" d="M417.518 496.165H115.245c15.357-12.693 25.159-31.879 25.159-53.311v-.004l-.091-213.245a7.917 7.917 0 0 0-7.918-7.914h-.003a7.916 7.916 0 0 0-7.914 7.921l.072 169.232c-12.693-15.342-31.87-25.135-53.292-25.135-21.432 0-40.618 9.802-53.311 25.159V66.516c.07-.343.118-.695.143-1.054 1.899-27.828 25.253-49.627 53.169-49.627 27.828 0 51.126 21.664 53.151 49.368l.056 130.626a7.917 7.917 0 0 0 7.918 7.914h.003a7.916 7.916 0 0 0 7.914-7.921l-.05-114.537h57.688c4.374 0 7.917-3.545 7.917-7.918s-3.544-7.918-7.917-7.918h-57.695v-.531c0-.178-.006-.357-.019-.535C137.762 28.281 107.468 0 71.258 0 35.608 0 5.694 27.408 2.426 62.709a7.89 7.89 0 0 0-.315 2.215v377.93C2.111 480.981 33.13 512 71.258 512h346.26a7.917 7.917 0 1 0 0-15.835zm-346.26 0c-29.396 0-53.311-23.915-53.311-53.311s23.915-53.311 53.311-53.311 53.311 23.915 53.311 53.311-23.915 53.311-53.311 53.311zM501.971 65.452H240.165c-4.374 0-7.918 3.545-7.918 7.918s3.544 7.918 7.918 7.918h253.889v414.878h-34.309a7.916 7.916 0 0 0-7.917 7.918 7.916 7.916 0 0 0 7.917 7.917h42.227a7.917 7.917 0 0 0 7.918-7.917V73.369a7.919 7.919 0 0 0-7.919-7.917z"/><path fill="#3d61ad" d="M71.258 405.377c-20.665 0-37.476 16.812-37.476 37.476 0 20.665 16.812 37.476 37.476 37.476s37.476-16.812 37.476-37.476c0-20.664-16.812-37.476-37.476-37.476zm0 59.118c-11.933 0-21.641-9.708-21.641-21.641s9.708-21.641 21.641-21.641 21.641 9.708 21.641 21.641-9.708 21.641-21.641 21.641zm384.263-48.56H229.608v-.001c-.949 0-1.891.171-2.781.505l-50.672 19.002a7.918 7.918 0 0 0 1.165 15.165l50.672 10.557a7.896 7.896 0 0 0 1.614.167h225.913a7.917 7.917 0 0 0 7.918-7.918v-29.559a7.916 7.916 0 0 0-7.916-7.918zm-233.83 27.738l-14.395-2.999 14.395-5.398v8.397zm194.243 1.82H237.526v-13.724h178.408v13.724zm31.67 0h-15.835v-13.724h15.835v13.724z"/><path fill="#599a42" d="M435.706 223.931l-112.958-109.79a7.915 7.915 0 0 0-11.037 0l-112.957 109.79a7.916 7.916 0 0 0-2.398 5.677v154.128a7.917 7.917 0 0 0 7.918 7.918h225.913a7.917 7.917 0 0 0 7.918-7.918V229.608a7.918 7.918 0 0 0-2.399-5.677zM317.229 130.86l93.451 90.831H223.778l93.451-90.831zm24.808 244.959h-49.616v-74.953h49.616v74.953zm80.231 0h-64.396v-82.87a7.917 7.917 0 0 0-7.918-7.918h-65.452a7.917 7.917 0 0 0-7.918 7.918v82.87H212.19V237.526h210.078v138.293z"/><path fill="#599a42" d="M317.229 160.462c-14.844 0-26.92 12.076-26.92 26.92 0 14.844 12.076 26.92 26.92 26.92 14.844 0 26.92-12.076 26.92-26.92-.001-14.844-12.076-26.92-26.92-26.92zm0 38.004c-6.112 0-11.085-4.972-11.085-11.085 0-6.112 4.972-11.085 11.085-11.085 6.112 0 11.085 4.972 11.085 11.085-.001 6.113-4.973 11.085-11.085 11.085z"/></svg>