<svg xmlns="http://www.w3.org/2000/svg" viewBox="0 0 512 512"><path fill="#3d61ad" d="M175.394 65.229c1.697 20.734 19.049 37.034 40.221 37.034 21.171 0 38.524-16.301 40.221-37.034h-80.442z"/><path fill="#599a42" d="M261.237 42.607h-2.302c-3.912-14.769-15.177-26.536-29.637-31.169v10.05a4.7 4.7 0 0 1-4.699 4.699h-3.637V5.558a5.559 5.559 0 0 0-11.115 0v20.631h-3.637a4.7 4.7 0 0 1-4.699-4.699v-9.914c-14.257 4.726-25.339 16.408-29.214 31.032h-2.725a5.752 5.752 0 0 0-5.753 5.753 5.75 5.75 0 0 0 5.752 5.753h91.667a5.754 5.754 0 0 0-.001-11.507z"/><path fill="#3d61ad" d="M394.857 89.761a6.014 6.014 0 0 0-3.811-2.965l-17.389-4.407a6.014 6.014 0 0 0-4.764.793 6.025 6.025 0 0 0-2.648 4.039l-13.051 77.325a19.365 19.365 0 0 0-9.587 4.098l-29.537 23.734.029-31.267v-.116c-.127-25.289-20.804-45.864-46.094-45.864h-21.758l-22.955 59.97 5.429-25.569a7.654 7.654 0 0 0-.78-5.276l-7.454-13.557 6.627-12.052c.987-1.795-.313-3.998-2.364-3.998h-18.188c-2.049 0-3.352 2.201-2.364 3.998l6.627 12.052-7.482 13.607a7.647 7.647 0 0 0-.8 5.177l4.746 25.618c-4.342-11.134-18.321-48.7-22.715-59.969H163.23c-25.29 0-45.967 20.574-46.094 45.864l-.719 143.1c-.054 10.757 8.623 19.521 19.38 19.576h.1c10.712 0 19.422-8.656 19.476-19.381l.719-143.1a3.865 3.865 0 0 1 7.729.019l.009 327.417c0 12.909 10.465 23.374 23.374 23.374s23.374-10.465 23.374-23.374v-186.83h10.092v186.83c0 12.909 10.465 23.374 23.374 23.374 12.909 0 23.374-10.465 23.374-23.374 0-309.072-.413-132.171-.423-327.342a4.078 4.078 0 0 1 8.152-.139v.002l-.067 71.879a19.478 19.478 0 0 0 31.679 15.2l30.113-24.196-20.514 60.047a6.019 6.019 0 0 0 4.216 7.778l17.391 4.407a6.019 6.019 0 0 0 7.411-4.832l14.495-85.881 8.142-6.542c8.385-6.738 9.721-18.999 2.983-27.384a19.711 19.711 0 0 0-1.493-1.643l25.759-75.408a6.02 6.02 0 0 0-.405-4.812z"/></svg>