<svg xmlns="http://www.w3.org/2000/svg" viewBox="0 0 512.002 512.002"><g fill="#3d61ad"><path fill="#599a42" d="M405.335 53.334c0-29.406-23.917-53.333-53.333-53.333s-53.333 23.927-53.333 53.333v332.073c-13.604 13.958-21.333 32.625-21.333 51.927 0 41.167 33.5 74.667 74.667 74.667s74.667-33.5 74.667-74.667c0-19.313-7.729-37.969-21.333-51.917V53.334zm-53.333 437.333c-29.417 0-53.333-23.927-53.333-53.333 0-15.104 6.333-29.125 17.813-39.469a10.663 10.663 0 0 0 3.521-7.927V53.334c0-17.646 14.354-32 32-32s32 14.354 32 32v336.615c0 3.021 1.292 5.906 3.521 7.927 11.479 10.344 17.813 24.354 17.813 39.458-.002 29.406-23.919 53.333-53.335 53.333z"/><path d="M362.668 407.299V224.001c0-5.896-4.771-10.667-10.667-10.667s-10.667 4.771-10.667 10.667v183.298c-12.389 4.418-21.333 16.147-21.333 30.035 0 17.646 14.354 32 32 32s32-14.354 32-32c.001-13.888-8.943-25.617-21.333-30.035zm-10.666 40.702c-5.875 0-10.667-4.781-10.667-10.667 0-5.885 4.792-10.667 10.667-10.667s10.667 4.781 10.667 10.667c-.001 5.886-4.792 10.667-10.667 10.667zm149.333-106.667h-64a10.66 10.66 0 0 0-10.667 10.667 10.66 10.66 0 0 0 10.667 10.667h64a10.66 10.66 0 0 0 10.667-10.667 10.66 10.66 0 0 0-10.667-10.667zm-64-21.333h21.333a10.66 10.66 0 0 0 10.667-10.667 10.66 10.66 0 0 0-10.667-10.667h-21.333a10.66 10.66 0 0 0-10.667 10.667 10.66 10.66 0 0 0 10.667 10.667zm0-42.667h21.333a10.66 10.66 0 0 0 10.667-10.667A10.66 10.66 0 0 0 458.668 256h-21.333a10.66 10.66 0 0 0-10.667 10.667 10.66 10.66 0 0 0 10.667 10.667zm64-64h-64c-5.896 0-10.667 4.771-10.667 10.667s4.771 10.667 10.667 10.667h64c5.896 0 10.667-4.771 10.667-10.667s-4.771-10.667-10.667-10.667zm-64-106.667h64c5.896 0 10.667-4.771 10.667-10.667s-4.771-10.667-10.667-10.667h-64c-5.896 0-10.667 4.771-10.667 10.667s4.771 10.667 10.667 10.667zm0 85.334h21.333a10.66 10.66 0 0 0 10.667-10.667 10.66 10.66 0 0 0-10.667-10.667h-21.333a10.66 10.66 0 0 0-10.667 10.667 10.66 10.66 0 0 0 10.667 10.667zm0-42.667h21.333a10.66 10.66 0 0 0 10.667-10.667A10.66 10.66 0 0 0 458.668 128h-21.333a10.66 10.66 0 0 0-10.667 10.667 10.66 10.66 0 0 0 10.667 10.667zm-161.458 26.625c-2.979-5.104-9.521-6.792-14.583-3.844l-31.855 18.582c-1.389-7.121-2.888-16.103-4.02-24.134-.813-5.844-6.396-9.99-12.042-9.073-5.833.823-9.896 6.208-9.083 12.052 1.507 10.697 3.53 23.23 5.763 32.461l-23.161 13.51c-.499-5.63-.896-12.302-1.121-18.686 1.068-2.813 1.059-6.008-.501-8.858-2.026-3.695-5.926-5.633-9.859-5.454-.164-.007-.313-.046-.475-.044-.193.018-.375.111-.568.139-1.549.09-3.107.352-4.514 1.109-6.719 3.674-14.441 7.586-20.521 10.501v-25.727c9.228-2.631 21.443-7.22 31.854-11.431 5.458-2.208 8.104-8.417 5.896-13.885-2.229-5.469-8.458-8.125-13.896-5.885-7.913 3.198-16.945 6.574-23.854 8.954v-39.579A10.66 10.66 0 0 0 138.67 96a10.66 10.66 0 0 0-10.667 10.667v39.54c-7.005-2.379-15.984-5.736-23.854-8.915-5.458-2.229-11.667.417-13.896 5.885-2.208 5.469.438 11.677 5.896 13.885 10.411 4.211 22.628 8.799 31.854 11.431v25.189c-6.083-2.854-13.286-6.508-19.625-9.964-1.746-.958-3.618-1.193-5.471-1.122-.678-.035-1.298.092-1.973.185-.389.089-.756.176-1.134.309-.936.236-1.915.262-2.776.754a10.64 10.64 0 0 0-5.333 8.979c-.181 7.547-.651 16.053-1.163 22.74l-21.632-12.618c2.327-9.302 4.443-22.326 6.003-33.402.813-5.844-3.25-11.229-9.083-12.052-5.688-.823-11.208 3.24-12.042 9.073-1.191 8.445-2.78 17.952-4.171 25.128l-33.559-19.576c-5.063-2.948-11.625-1.26-14.583 3.844-2.979 5.094-1.25 11.625 3.833 14.594l33.589 19.592C33.3 215.048 26 221.091 19.232 226.376c-4.646 3.625-5.479 10.323-1.854 14.969a10.65 10.65 0 0 0 8.417 4.104c2.313 0 4.625-.74 6.562-2.26 8.836-6.895 18.879-15.151 25.771-21.816l21.846 12.743c-5.694 4.021-12.883 8.751-19.492 12.781a10.634 10.634 0 0 0-5.125 9.104c0 3.719 1.938 7.177 5.125 9.104 6.698 4.09 13.977 8.867 19.59 12.724L58.127 290.63c-6.892-6.665-16.935-14.922-25.771-21.816-4.646-3.615-11.354-2.833-14.979 1.844-3.625 4.646-2.792 11.344 1.854 14.969 6.814 5.314 14.154 11.389 19.69 16.207L5.293 321.449c-5.083 2.969-6.813 9.5-3.833 14.594a10.64 10.64 0 0 0 9.208 5.292c1.833 0 3.688-.469 5.375-1.448l33.518-19.552c1.441 7.257 3.027 16.702 4.211 25.104.75 5.323 5.313 9.177 10.542 9.177.5 0 1-.031 1.5-.104 5.833-.823 9.896-6.208 9.083-12.052-1.56-11.076-3.676-24.099-6.003-33.402l21.547-12.569c.604 6.82 1.069 15.227 1.247 22.69a10.626 10.626 0 0 0 5.333 8.979c.842.486 1.81.492 2.732.73.421.15.832.243 1.27.34.457.06.875.357 1.332.357.227 0 .436-.154.663-.168 1.815.048 3.647-.197 5.358-1.134 6.392-3.484 13.694-7.195 19.625-10.059v27.271c-9.227 2.629-21.443 7.212-31.854 11.423-5.458 2.198-8.104 8.417-5.896 13.875a10.682 10.682 0 0 0 13.896 5.896c7.913-3.191 16.945-6.566 23.854-8.945v37.591a10.66 10.66 0 0 0 10.667 10.667 10.66 10.66 0 0 0 10.667-10.667v-37.551c7.005 2.378 15.984 5.73 23.854 8.905 1.313.531 2.667.781 4 .781 4.208 0 8.208-2.521 9.896-6.677 2.208-5.458-.438-11.677-5.896-13.875-10.411-4.211-22.626-8.794-31.854-11.423v-27.592c6.276 2.911 13.845 6.728 20.521 10.38 1.756.951 3.697 1.285 5.63 1.191.147.007.286.111.432.111a10.65 10.65 0 0 0 9.354-5.552c1.56-2.852 1.57-6.046.501-8.859.225-6.466.613-13.203 1.036-18.734L210.054 310c-2.233 9.229-4.255 21.766-5.762 32.461-.813 5.844 3.25 11.229 9.083 12.052.5.073 1 .104 1.5.104 5.229 0 9.792-3.854 10.542-9.177 1.138-8.069 2.638-17.102 3.983-24.156l31.892 18.604a10.69 10.69 0 0 0 5.375 1.448 10.64 10.64 0 0 0 9.208-5.292c2.979-5.094 1.25-11.625-3.833-14.594l-32.467-18.94c5.645-4.997 13.299-11.352 20.384-16.883 4.646-3.625 5.479-10.323 1.854-14.969-3.646-4.656-10.396-5.448-14.979-1.844-9.122 7.117-19.603 15.72-26.482 22.483l-22.99-13.41c5.694-4.021 12.883-8.751 19.492-12.781a10.634 10.634 0 0 0 5.125-9.104c0-3.719-1.938-7.177-5.125-9.104-6.698-4.09-13.977-8.867-19.59-12.724l23.087-13.467c6.879 6.763 17.359 15.366 26.482 22.483a10.625 10.625 0 0 0 6.563 2.26 10.65 10.65 0 0 0 8.417-4.104c3.625-4.646 2.792-11.344-1.854-14.969-7.137-5.566-14.844-11.961-20.43-16.857l32.513-18.966c5.085-2.97 6.814-9.501 3.835-14.595zM99.94 266.238c-3.553-2.956-8.202-6.359-14.022-10.237 5.818-3.876 10.465-7.281 14.02-10.238l17.552 10.238-17.55 10.237zm28.062 28.491c-4.31 1.598-9.517 3.889-15.708 6.949-.435-6.805-1.047-12.38-1.806-16.884l17.514-10.216v20.151zm0-57.305l-17.513-10.215c.758-4.503 1.37-10.079 1.805-16.885 6.191 3.06 11.398 5.352 15.708 6.949v20.151zm21.333-19.932c4.288-1.514 9.413-3.677 15.741-6.775.434 6.613 1.03 12.082 1.773 16.491l-17.514 10.216v-19.932zm15.741 83.793c-6.328-3.098-11.453-5.26-15.741-6.775v-19.932l17.513 10.215c-.742 4.407-1.339 9.877-1.772 16.492zm12.323-35.046l-17.552-10.238 17.549-10.237c3.553 2.956 8.202 6.359 14.022 10.237-5.817 3.876-10.465 7.281-14.019 10.238z"/></g></svg>