<svg xmlns="http://www.w3.org/2000/svg" viewBox="0 0 512.001 512.001"><g fill="#599a42"><path d="M256.001 85.791c0 6.026-.965 11.815-2.761 17.233H148.922a54.649 54.649 0 0 1-2.761-17.233c0-30.34 24.595-54.92 54.92-54.92s54.92 24.58 54.92 54.92z"/><path d="M365.84 85.791c0 6.026-.965 11.815-2.761 17.233H258.762a54.649 54.649 0 0 1-2.761-17.233c0-30.34 24.595-54.92 54.92-54.92s54.919 24.58 54.919 54.92z"/></g><path d="M258.762 117.867h-5.522c-8.198 0-14.843-6.647-14.843-14.843s6.645-14.843 14.843-14.843h5.522c8.196 0 14.843 6.647 14.843 14.843s-6.646 14.843-14.843 14.843z" fill="#2d527c"/><path d="M313.393 307.958L256.001 263.4l-57.394 44.558V103.024h114.786zm-114.788 76.69l57.394-44.558 57.393 44.558z" fill="#599a42"/><path d="M497.157 88.182H380.636a70.41 70.41 0 0 0 .048-2.39c0-38.468-31.295-69.763-69.763-69.763-22.28 0-42.138 10.512-54.92 26.82-12.781-16.31-32.64-26.82-54.92-26.82-38.468 0-69.763 31.295-69.763 69.763 0 .799.021 1.594.048 2.39H14.843C6.645 88.182 0 94.829 0 103.025v96.228c0 8.196 6.645 14.843 14.843 14.843h23.705v267.032c0 8.196 6.645 14.843 14.843 14.843H458.61c8.196 0 14.843-6.647 14.843-14.843V273.52c0-8.196-6.647-14.843-14.843-14.843s-14.843 6.647-14.843 14.843v192.766H328.235v-81.638c0-4.585-2.12-8.913-5.74-11.723l-57.393-44.559a14.84 14.84 0 0 0-18.205-.001l-57.394 44.559a14.847 14.847 0 0 0-5.741 11.725v81.638H68.234v-252.19h115.529v93.861a14.843 14.843 0 0 0 23.947 11.725l48.291-37.491 48.292 37.491a14.844 14.844 0 0 0 23.945-11.725v-190.09h154.077v66.542h-95.694c-8.196 0-14.843 6.647-14.843 14.843s6.647 14.843 14.843 14.843h110.537c8.196 0 14.843-6.647 14.843-14.843v-96.228c-.001-8.198-6.646-14.843-14.844-14.843zM213.448 391.917l42.551-33.035 42.55 33.035v74.37h-85.101v-74.37zM183.763 184.41H29.686v-66.542h154.077v66.542zm14.844-96.229h-37.534a41.2 41.2 0 0 1-.07-2.388c0-22.099 17.978-40.077 40.077-40.077s40.077 17.978 40.077 40.077c0 .8-.024 1.596-.07 2.388h-42.48zm99.945 189.463l-33.449-25.968a14.826 14.826 0 0 0-9.102-3.119 14.813 14.813 0 0 0-9.102 3.119l-33.448 25.968V117.867h85.102v159.777h-.001zm52.375-189.463h-80.014a41.2 41.2 0 0 1-.07-2.388c0-22.099 17.978-40.077 40.077-40.077s40.077 17.978 40.077 40.077c0 .798-.024 1.595-.07 2.388z" fill="#2d527c"/></svg>