<svg xmlns="http://www.w3.org/2000/svg" viewBox="0 0 511.998 511.998"><g fill="#3d61ad"><path d="M418.186 111.784c-6.579-65.126-56.86-107.671-58.996-109.45a9.999 9.999 0 0 0-12.672-.101c-.523.421-52.334 42.884-58.79 109.41a139.272 139.272 0 0 0-.649 13.609c.008 5.517 4.484 9.982 9.999 9.982h.016c5.523-.009 9.992-4.493 9.983-10.015-.006-3.863.181-7.781.556-11.645a120.888 120.888 0 0 1 1.914-12.62l32.08 32.079c.422.422.878.79 1.351 1.121v24.353c0 5.523 4.478 9.999 9.999 9.999 5.522 0 9.999-4.477 9.999-9.999v-51.62l26.951-26.951c4.063 10.328 7.132 21.679 8.362 33.858a118 118 0 0 1 .599 11.645c.01 5.517 4.485 9.981 9.999 9.981h.019c5.522-.01 9.99-4.495 9.98-10.017-.008-4.528-.244-9.11-.7-13.619zm-75.211-9.259c-.003.154-.003.306 0 .46v3.116l-26.926-26.926c7.392-18.779 18.061-34.045 26.926-44.658v68.008zm19.998-23.921V35.05c5.666 6.836 12.023 15.529 17.8 25.754l-17.8 17.8z" fill="#599a42"/><path d="M501.97 491.98h-.116c-5.522 0-9.999 4.478-9.999 9.999 0 5.522 4.478 9.999 9.999 9.999h.116c5.522 0 9.999-4.478 9.999-9.999 0-5.521-4.478-9.999-9.999-9.999z"/><path d="M469.305 491.98H362.981v-36.56l14.737-14.737c3.905-3.905 3.905-10.235 0-14.142-3.905-3.902-10.234-3.904-14.142 0l-.596.596v-27.344c20.302-21.585 35.538-46.639 45.274-74.495 1.823-5.214-.926-10.916-6.14-12.738-5.215-1.824-10.917.927-12.738 6.14-6.299 18.02-15.152 34.74-26.397 49.952V296.89l12.393-12.434c7.366 5.782 19.532 12.923 35.264 13.593.815.034 1.629.052 2.443.052 18.332 0 36.396-8.804 53.732-26.196 51.277-51.447 45.101-126.082 44.813-129.235a10 10 0 0 0-8.894-9.032c-.762-.082-76.685-7.541-129.013 44.959-9.51 9.541-16.416 19.302-20.735 29.205-4.319-9.901-11.224-19.663-20.734-29.205-52.327-52.499-128.253-45.042-129.013-44.959a10.002 10.002 0 0 0-8.894 9.032c-.287 3.152-6.464 77.788 44.813 129.235 17.336 17.394 35.398 26.196 53.731 26.196.813 0 1.629-.018 2.443-.052 15.732-.671 27.899-7.812 35.264-13.594l12.388 12.429v88.634l-6.598-6.599c-3.906-3.904-10.235-3.904-14.142 0-3.905 3.905-3.905 10.236 0 14.142l20.739 20.739v78.179H10.003c-5.522 0-9.999 4.478-9.999 9.999 0 5.522 4.478 9.999 9.999 9.999H469.3c5.522 0 9.999-4.478 9.999-9.999.001-5.521-4.472-9.998-9.994-9.998zm13.665-284.412h-30.964l39.166-39.295c-1.022 11.006-3.31 24.826-8.202 39.295zm-77.334-29.483c24.786-16.736 52.457-22.347 71.53-24.089l-71.53 71.766v-47.677zm26.439 49.482h42.433c-5.45 10.535-12.556 20.884-21.859 30.219-13.903 13.949-27.677 20.768-40.942 20.29-9.334-.342-16.983-4.313-22.076-7.924l42.444-42.585zm-46.437-32.526v50.786l-10.123 10.157c-3.564-5.071-7.463-12.653-7.858-21.913-.542-12.662 5.512-25.781 17.981-39.03zm-85.307-16.956v47.677l-71.529-71.765c19.073 1.743 46.744 7.353 71.529 24.088zm-85.537-9.812l39.166 39.295h-30.963c-4.891-14.47-7.179-28.29-8.203-39.295zm79.684 109.794c-13.34.566-27.18-6.257-41.158-20.281-9.303-9.334-16.411-19.683-21.859-30.22h42.432l29.365 29.462.004.004 13.081 13.124c-5.05 3.583-12.618 7.517-21.865 7.911zm43.844-44.217c-.342 9.35-4.28 17.015-7.873 22.129l-10.118-10.152V195.04c12.395 13.172 18.451 26.217 17.991 38.81z" fill="#599a42"/><path d="M272.443 55.45l-.117-.037c-5.265-1.646-10.879 1.291-12.526 6.562-1.647 5.271 1.289 10.88 6.56 12.527l.213.066c.978.3 1.966.443 2.938.443 4.277 0 8.235-2.766 9.556-7.066 1.621-5.28-1.345-10.874-6.624-12.495zm56.405 287.71l-10.502-2.457c-34.317-8.025-69.38 9.617-83.385 41.951l-27.414 63.285c-14.102-.178-27.839-1.892-41.049-4.997l-12.608-42.046c-9.582-31.954 5.218-65.781 35.188-80.432l10.051-4.912a35.694 35.694 0 0 0 18.443-21.696 35.686 35.686 0 0 0-3.373-28.274c-6.359-10.846-18.123-17.585-30.696-17.585h-23.866c-7.48 0-13.985-3.975-17.397-10.632-3.413-6.657-2.843-14.259 1.525-20.332l21.569-29.991c10.528-14.638 9.823-34.539-1.714-48.396l-41.05-49.304c26.183-13.626 55.913-21.341 87.413-21.341 5.945 0 11.947.278 17.842.826 5.482.509 10.37-3.532 10.882-9.03.512-5.499-3.532-10.371-9.03-10.882a213.585 213.585 0 0 0-19.692-.912c-38.983 0-75.511 10.691-106.83 29.276a9.971 9.971 0 0 0-2.098 1.246C40.513 113.408 0 180.055 0 255.986c0 96.839 65.901 178.564 155.206 202.721.492.176.997.313 1.514.411a209.559 209.559 0 0 0 53.264 6.852c37.38 0 74.086-9.948 106.151-28.769 4.763-2.796 6.356-8.922 3.562-13.686-2.795-4.764-8.921-6.357-13.686-3.562-23.311 13.684-49.345 22.169-76.231 24.975l23.532-54.326c10.159-23.451 35.601-36.246 60.479-30.427l10.501 2.457c5.377 1.254 10.756-2.081 12.015-7.458 1.258-5.377-2.082-10.755-7.459-12.014zm-308.85-87.174c0-66.027 33.862-124.283 85.125-158.345l43.13 51.802a19.548 19.548 0 0 1 .847 23.924l-21.569 29.991c-8.705 12.103-9.888 27.864-3.088 41.132 6.8 13.267 20.286 21.508 35.194 21.508h23.867a15.643 15.643 0 0 1 13.445 7.702c2.22 3.785 2.744 8.183 1.478 12.384-1.268 4.201-4.137 7.576-8.078 9.503l-10.051 4.912c-38.808 18.969-57.97 62.767-45.563 104.142l8.794 29.327C71.448 406.966 19.998 337.376 19.998 255.986z"/></g></svg>