<svg xmlns="http://www.w3.org/2000/svg" viewBox="0 0 291.488 291.488"><g fill="#3d61ad"><path d="M145.745 0L92.654 33.628C85.102 28.58 80.12 19.983 80.12 10.237h-9.375c0 15.511-12.614 28.125-28.125 28.125v9.375c6.553 0 12.572 2.269 17.358 6.038L.432 92.053v57.952l28.125-17.813v37.42c0 12.923-10.514 23.438-23.438 23.438v9.375c12.923 0 23.438 10.514 23.438 23.438v65.625h234.375V132.192l28.125 17.813V92.03L145.745 0zM75.432 28.378A37.789 37.789 0 0 0 90.104 43.05a37.762 37.762 0 0 0-14.672 14.672c-1.88-3.389-4.308-6.412-7.106-9.056l-.117-.183-.052.033c-2.24-2.096-4.697-3.966-7.397-5.466a37.769 37.769 0 0 0 14.672-14.672zm-53.424 169.36a33.112 33.112 0 0 0 11.236-11.236 33.077 33.077 0 0 0 11.236 11.236 33.112 33.112 0 0 0-11.236 11.236 33.112 33.112 0 0 0-11.236-11.236zm109.674 84.375h-56.25V160.238h56.25v121.875zm121.875-.001h-112.5v-131.25h-75v131.25H37.932v-56.25c0-12.923 10.514-23.438 23.438-23.438v-9.375c-12.923 0-23.438-10.514-23.438-23.438v-43.355l107.812-68.283 30.22 19.139c-7.669 7.884-18.375 12.811-30.22 12.811V99.3c23.259 0 42.188 18.923 42.188 42.188h9.375c0-15.919 8.869-29.798 21.919-36.98l34.331 21.745v155.859zM192.62 69.211a51.9 51.9 0 0 0 25.397 25.402 51.88 51.88 0 0 0-25.397 25.402 51.9 51.9 0 0 0-25.397-25.402 51.904 51.904 0 0 0 25.397-25.402zm89.062 63.759l-51.479-32.606c2.995-.675 6.094-1.064 9.291-1.064v-9.375c-23.259 0-42.188-18.923-42.188-42.188h-9.375c0 8.034-2.297 15.525-6.211 21.923l-35.977-22.786L9.807 132.97V97.172l56.541-36.347c2.77 4.355 4.397 9.506 4.397 15.037h9.375c0-15.511 12.614-28.125 28.125-28.125v-9.375c-1.655 0-3.267-.173-4.842-.445L145.745 11.1l135.938 86.095v35.775z"/><path d="M159.807 207.113h70.313v-56.25h-70.313v56.25zm9.375-46.875h51.563v37.5h-51.563v-37.5zm-56.25 60.937h9.375v9.375h-9.375z"/><path d="M201.995 169.613h9.375v9.375h-9.375zm32.812 93.749h9.375v9.375h-9.375zm-18.75 0h9.375v9.375h-9.375zm-18.75 0h9.375v9.375h-9.375z"/></g></svg>