<svg xmlns="http://www.w3.org/2000/svg" viewBox="0 0 495.485 495.485"><g fill="#3d61ad"><path d="M387.998 105.937h-17.765c-22.969 0-41.605 18.629-41.605 41.605v3.052l52.523-37.304c.048-.034.109-.04.159-.074-.05.04-.099.049-.142.088l-69.363 63.773-71.121 30.29c-10.505 4.464-15.397 16.605-10.93 27.108 3.359 7.862 10.997 12.578 19.036 12.578 2.7 0 5.444-.534 8.073-1.664l74.398-31.676a20.348 20.348 0 0 0 5.896-3.804l71.973-66.187c.061-.055.08-.138.142-.193-.061.064-.08.144-.13.209L345.55 219.04a17.662 17.662 0 0 1-6.539 4.859l-2.891 1.228-7.492 3.187.031 242.372c0 13.698 11.112 24.8 24.8 24.8 5.653 0 10.819-1.971 14.98-5.167-3.18-5.861-5.164-12.48-5.164-19.633V322.901h16.536v147.784c0 13.698 11.107 24.8 24.8 24.8 13.688 0 24.793-11.102 24.793-24.8 0 0 .196-208.497.196-323.144.001-22.975-18.629-41.604-41.602-41.604zm-8.868-9.302c26.704 0 48.323-21.625 48.323-48.313C427.454 21.625 405.835 0 379.13 0c-26.684 0-48.321 21.625-48.321 48.322 0 26.688 21.638 48.313 48.321 48.313z"/><path fill="#599a42" d="M116.355 96.635c26.685 0 48.323-21.625 48.323-48.313C164.678 21.625 143.04 0 116.355 0 89.653 0 68.034 21.625 68.034 48.322c0 26.688 21.619 48.313 48.321 48.313zm60.737 77.19l-55.15-53.198 44.916 34.664v-7.749c0-22.976-18.636-41.605-41.605-41.605H107.49c-22.977 0-41.605 18.629-41.605 41.605 0 118.313.196 323.144.196 323.144 0 13.698 11.107 24.8 24.793 24.8 13.693 0 24.8-11.102 24.8-24.8V322.901h16.536v147.784c0 7.153-1.99 13.772-5.17 19.633 4.169 3.196 9.332 5.167 14.987 5.167 13.686 0 24.8-11.102 24.8-24.8l.031-242.66-16.504-11.737-5.275-3.748a4.933 4.933 0 0 1-.841-.783l-51.005-61.376 57.089 55.063a20.918 20.918 0 0 0 4.299 3.175l68.13 37.954c-1.714-2.194-3.243-4.559-4.391-7.238-5.734-13.475-1.743-28.505 8.682-37.675l-49.95-27.835z"/></g></svg>