<svg xmlns="http://www.w3.org/2000/svg" viewBox="0 0 512 512"><g fill="#3d61ad"><path d="M39.398 383.352a8.535 8.535 0 0 0 9.301-1.852l139.059-139.051L326.767 381.5a8.526 8.526 0 0 0 9.301 1.852 8.547 8.547 0 0 0 5.265-7.885V264.533A8.536 8.536 0 0 0 332.8 256a8.536 8.536 0 0 0-8.533 8.533v90.325L193.818 224.367c-3.2-3.2-8.917-3.2-12.117 0l-130.5 130.5V256h42.667a8.536 8.536 0 0 0 8.533-8.533v-8.533h17.067v8.533c0 4.71 3.823 8.533 8.533 8.533s8.533-3.823 8.533-8.533V230.4a8.536 8.536 0 0 0-8.533-8.533H93.867a8.536 8.536 0 0 0-8.533 8.533v8.533H42.667a8.536 8.536 0 0 0-8.533 8.533v128a8.546 8.546 0 0 0 5.264 7.886z"/><path d="M239.778 179.14a384.483 384.483 0 0 0-.845 25.66c0 42.743 12.757 68.267 34.133 68.267 26.948 0 34.133-32.179 34.133-51.2 0-4.71-3.823-8.533-8.533-8.533s-8.533 3.823-8.533 8.533c0 .341-.734 34.133-17.067 34.133-9.89 0-17.067-21.53-17.067-51.2 0-99.49 34.918-110.822 36.019-111.138 4.497-1.024 7.39-5.453 6.477-10.001a8.499 8.499 0 0 0-10.035-6.69c-1.707.341-7.893 1.963-15.334 8.337.009-1.468.128-2.935.521-4.395a16.929 16.929 0 0 1 7.953-10.359 16.967 16.967 0 0 1 12.945-1.707c4.403 1.186 8.09 4.011 10.359 7.953 4.71 8.149 1.911 18.611-6.238 23.313a8.542 8.542 0 0 0-3.123 11.665 8.529 8.529 0 0 0 7.398 4.258 8.469 8.469 0 0 0 4.258-1.143c16.299-9.421 21.897-30.336 12.493-46.626-4.557-7.893-11.921-13.542-20.727-15.906-8.823-2.364-18.014-1.143-25.899 3.413-7.893 4.557-13.542 11.921-15.906 20.727-2.21 8.243-1.161 16.802 2.85 24.593-7.322 11.913-14.165 29.653-17.971 56.038-12.774-15.3-20.173-34.79-20.173-54.733 0-47.053 38.281-85.333 85.333-85.333s85.333 38.281 85.333 85.333-38.281 85.333-85.333 85.333a85.381 85.381 0 0 1-27.076-4.378c-4.454-1.485-9.301.922-10.795 5.385-1.502 4.471.913 9.301 5.385 10.795a102.32 102.32 0 0 0 32.486 5.265c56.465 0 102.4-45.935 102.4-102.4C409.6 45.935 363.665 0 307.2 0S204.8 45.935 204.8 102.4c0 29.099 13.065 57.378 34.978 76.74zM509.5 249.967l-88.627-88.627c-3.328-3.328-8.73-3.328-12.066 0-3.328 3.337-3.328 8.738 0 12.066l86.127 86.127v30.601h-30.601l-3.533-3.533v-22.067a8.536 8.536 0 0 0-8.533-8.533h-8.533v-8.533a8.536 8.536 0 0 0-8.533-8.533h-22.059l-3.541-3.541v-22.059a8.536 8.536 0 0 0-8.533-8.533H379l-.828-.828c-3.328-3.328-8.73-3.328-12.066 0-3.328 3.337-3.328 8.738 0 12.066l3.328 3.328a8.513 8.513 0 0 0 6.033 2.5h17.067v17.058a8.52 8.52 0 0 0 2.492 6.025l8.533 8.55a8.532 8.532 0 0 0 6.042 2.5h17.067v8.533a8.536 8.536 0 0 0 8.533 8.533h8.533v17.067c0 2.261.896 4.437 2.5 6.033l8.533 8.533a8.513 8.513 0 0 0 6.033 2.5h42.667a8.536 8.536 0 0 0 8.533-8.533V256a8.513 8.513 0 0 0-2.5-6.033zm-296.167 125.5A8.536 8.536 0 0 0 204.8 384v68.267a8.536 8.536 0 0 0 8.533 8.533h51.2a8.536 8.536 0 0 0 8.533-8.533V384a8.536 8.536 0 0 0-8.533-8.533h-51.2zM256 443.733h-34.133v-51.2H256v51.2z"/><path d="M503.467 494.933H409.6v-34.995c19.447-3.968 34.133-21.197 34.133-41.805 0-1.109-.486-110.933-42.667-110.933-42.18 0-42.667 109.824-42.667 110.933 0 20.608 14.686 37.837 34.133 41.805v34.995h-68.267V396.8c0-4.71-3.823-8.533-8.533-8.533s-8.533 3.823-8.533 8.533v98.133H187.733V384a8.536 8.536 0 0 0-8.533-8.533h-68.267A8.536 8.536 0 0 0 102.4 384v110.933H68.267V396.8c0-4.71-3.823-8.533-8.533-8.533S51.2 392.09 51.2 396.8v98.133H8.533c-4.71 0-8.533 3.823-8.533 8.533S3.823 512 8.533 512h494.933c4.71 0 8.533-3.823 8.533-8.533s-3.822-8.534-8.532-8.534zm-332.8-59.733h-8.533c-4.71 0-8.533 3.823-8.533 8.533s3.823 8.533 8.533 8.533h8.533v42.667h-51.2v-102.4h51.2V435.2zm204.8-17.067c0-42.513 11.418-93.867 25.6-93.867 14.182 0 25.6 51.354 25.6 93.867 0 14.114-11.486 25.6-25.6 25.6s-25.6-11.486-25.6-25.6z"/></g></svg>