<svg xmlns="http://www.w3.org/2000/svg" width="512" height="512"><path d="M411.826 49.469H299.285v-6.184C299.285 19.418 279.867 0 256 0s-43.285 19.418-43.285 43.285v6.184H100.174c-6.829 0-12.367 5.537-12.367 12.367v437.797c0 6.83 5.538 12.367 12.367 12.367h311.652c6.829 0 12.367-5.537 12.367-12.367V61.836c0-6.831-5.538-12.367-12.367-12.367zm-174.377-6.184c0-10.229 8.322-18.551 18.551-18.551s18.551 8.322 18.551 18.551v6.184H237.45v-6.184zm-43.285 30.918h123.672v30.918H194.164V74.203zm205.295 413.063H112.541V74.203h56.889v43.285c0 6.83 5.538 12.367 12.367 12.367h148.406c6.829 0 12.367-5.537 12.367-12.367V74.203h56.889v413.063z" fill="#599a42"/><path d="M225.922 190.675l-47.217 47.217-20.318-20.318c-4.831-4.829-12.659-4.829-17.491 0-4.829 4.829-4.829 12.66 0 17.491l29.063 29.063a12.328 12.328 0 0 0 8.745 3.622 12.33 12.33 0 0 0 8.745-3.622l55.961-55.961c4.829-4.829 4.829-12.66 0-17.491-4.829-4.831-12.658-4.831-17.488-.001z" fill="#3d61ad"/><path d="M257.237 239.923c0 6.83 5.538 12.367 12.367 12.367h90.28c6.829 0 12.367-5.537 12.367-12.367 0-6.83-5.538-12.367-12.367-12.367h-90.28c-6.829 0-12.367 5.536-12.367 12.367z" fill="#599a42"/><path d="M225.922 271.371l-47.217 47.216-20.318-20.318c-4.831-4.829-12.659-4.829-17.491 0-4.829 4.829-4.829 12.66 0 17.491l29.063 29.063a12.328 12.328 0 0 0 8.745 3.622 12.33 12.33 0 0 0 8.745-3.622l55.961-55.961c4.829-4.829 4.829-12.66 0-17.491-4.829-4.83-12.658-4.83-17.488 0z" fill="#3d61ad"/><path d="M359.884 307.942h-90.28c-6.829 0-12.367 5.537-12.367 12.367s5.538 12.367 12.367 12.367h90.28c6.829 0 12.367-5.537 12.367-12.367 0-6.83-5.538-12.367-12.367-12.367z" fill="#599a42"/><path d="M225.922 352.067l-47.217 47.217-20.318-20.318c-4.831-4.829-12.659-4.829-17.491 0-4.829 4.829-4.829 12.66 0 17.491l29.063 29.063a12.328 12.328 0 0 0 8.745 3.622 12.33 12.33 0 0 0 8.745-3.622l55.961-55.961c4.829-4.829 4.829-12.66 0-17.491-4.829-4.832-12.658-4.832-17.488-.001z" fill="#3d61ad"/><path d="M359.884 389.565h-90.28c-6.829 0-12.367 5.537-12.367 12.367s5.538 12.367 12.367 12.367h90.28c6.829 0 12.367-5.537 12.367-12.367s-5.538-12.367-12.367-12.367z" fill="#599a42"/></svg>