<svg xmlns="http://www.w3.org/2000/svg" viewBox="0 0 512 512"><g fill="#3d61ad"><path d="M483.999 200.673a7.498 7.498 0 0 0-10.534-1.236 7.499 7.499 0 0 0-1.237 10.534C488.434 230.487 497 255.186 497 281.394c0 63.591-51.735 115.326-115.326 115.326s-115.326-51.735-115.326-115.326c0-63.578 51.715-115.305 115.288-115.326h.045c25.506.001 49.675 8.158 69.895 23.59a7.499 7.499 0 0 0 10.512-1.412 7.5 7.5 0 0 0-1.412-10.512c-22.857-17.445-50.176-26.667-79.001-26.667l-.038.001h-205.56l-38.805-38.805c-15.983-15.982-41.986-15.981-57.968 0-13.986 13.988-15.731 35.652-5.235 51.556-20.226 9.671-37.575 24.352-50.577 42.921C8.124 228.691 0 254.506 0 281.394c0 32.347 11.934 63.369 33.604 87.35a7.478 7.478 0 0 0 5.566 2.472 7.5 7.5 0 0 0 5.562-12.529C25.56 337.468 15 310.019 15 281.394c0-23.794 7.185-46.634 20.78-66.051 12.367-17.664 29.171-31.354 48.803-39.833l53.136 53.136a40.708 40.708 0 0 0 14.18 9.248c.89.344 1.804.507 2.703.507a7.502 7.502 0 0 0 2.707-14.497 25.784 25.784 0 0 1-8.982-5.864l-36.02-36.02c9.118-.891 17.996-4.82 24.965-11.788 6.783-6.782 10.895-15.521 11.811-24.944l18.574 18.574.021.021 17.404 17.404c4.908 4.909 7.612 11.436 7.612 18.377 0 6.942-2.704 13.468-7.613 18.377a26.014 26.014 0 0 1-6.294 4.643 7.5 7.5 0 0 0 6.972 13.281 40.962 40.962 0 0 0 9.928-7.316c7.743-7.742 12.007-18.035 12.007-28.984 0-10.949-4.264-21.242-12.006-28.984l-4.61-4.61h129.95a131.252 131.252 0 0 0-43.421 36.964h-38.211a7.5 7.5 0 0 0-7.5 7.5 7.5 7.5 0 0 0 7.5 7.5h28.428c-10.487 18.768-16.475 40.377-16.475 63.361 0 49.979 28.283 93.469 69.681 115.326H130.326c-22.854 0-44.939-6.669-63.871-19.286a7.498 7.498 0 0 0-10.4 2.082 7.5 7.5 0 0 0 2.082 10.4c21.403 14.265 46.365 21.805 72.189 21.805h251.348c71.862 0 130.326-58.464 130.326-130.326 0-29.62-9.683-57.533-28.001-80.724zm-357.334-41.048c-10.132 10.132-26.621 10.133-36.753 0-10.133-10.133-10.133-26.621 0-36.755 5.066-5.066 11.722-7.6 18.376-7.6 6.655 0 13.311 2.533 18.377 7.6l.021.02c4.896 4.907 7.593 11.425 7.593 18.357-.001 6.943-2.705 13.469-7.614 18.378z"/><path d="M134.278 366.816a7.5 7.5 0 0 0 7.5 7.5h97.616a7.5 7.5 0 0 0 7.5-7.5 7.5 7.5 0 0 0-7.5-7.5h-97.616a7.5 7.5 0 0 0-7.5 7.5zm-12.501-48.106a7.5 7.5 0 0 0-7.5-7.5H52.152a7.5 7.5 0 0 0-7.5 7.5 7.5 7.5 0 0 0 7.5 7.5h62.125a7.5 7.5 0 0 0 7.5-7.5zm93.453-40.978h-30.447c-12.547 0-24.344-4.886-33.215-13.758-11.706-11.706-27.269-18.152-43.822-18.152H52.152a7.5 7.5 0 0 0-7.5 7.5 7.5 7.5 0 0 0 7.5 7.5h55.594c12.547 0 24.343 4.886 33.215 13.758 11.705 11.705 27.269 18.151 43.822 18.151h30.447a7.5 7.5 0 1 0 0-14.999z"/><g fill="#599a42"><path d="M422.649 308.078a7.5 7.5 0 0 0-12.564-8.195c-6.292 9.646-16.913 15.404-28.412 15.404-6.792 0-13.343-2-18.944-5.784a7.5 7.5 0 0 0-8.396 12.43c8.09 5.465 17.545 8.354 27.341 8.354 16.586 0 31.904-8.303 40.975-22.209z"/><path d="M402.72 368.938c.63 0 1.27-.08 1.907-.247 39.619-10.391 67.29-46.289 67.29-87.296 0-13.286-2.822-26.084-8.388-38.041a7.502 7.502 0 0 0-9.965-3.634 7.5 7.5 0 0 0-3.635 9.964c4.637 9.959 6.987 20.628 6.987 31.711 0 34.193-23.067 64.125-56.095 72.788a7.5 7.5 0 0 0 1.899 14.755zm-36.037-117.951a7.5 7.5 0 1 0-6.647-13.447c-16.811 8.308-27.255 25.112-27.255 43.854 0 4.136.518 8.246 1.541 12.215a7.502 7.502 0 0 0 9.134 5.392 7.5 7.5 0 0 0 5.392-9.134 34.031 34.031 0 0 1-1.066-8.474c-.001-12.993 7.241-24.644 18.901-30.406z"/><path d="M389.488 240.047a7.5 7.5 0 0 0 4.317 9.688c13.016 4.991 21.761 17.714 21.761 31.659 0 4.142 3.357 7.5 7.5 7.5s7.5-3.358 7.5-7.5c0-20.113-12.614-38.464-31.39-45.665a7.503 7.503 0 0 0-9.688 4.318z"/><path d="M444.149 226.628a7.502 7.502 0 0 0-.262-10.604c-16.849-16.04-38.943-24.873-62.214-24.873-49.761 0-90.243 40.483-90.243 90.243 0 42.952 30.536 80.18 72.607 88.52a7.503 7.503 0 0 0 8.815-5.898 7.5 7.5 0 0 0-5.898-8.816c-35.069-6.952-60.523-37.991-60.523-73.806 0-41.489 33.754-75.243 75.243-75.243 19.402 0 37.824 7.365 51.872 20.737a7.5 7.5 0 0 0 10.603-.26z"/></g></g></svg>