<svg xmlns="http://www.w3.org/2000/svg" viewBox="0 0 512.001 512.001"><g fill="#3d61ad"><path d="M270.585 393.432l-.086-1.188c-.398-5.508-5.189-9.645-10.695-9.253-5.509.399-9.652 5.187-9.253 10.696l.086 1.188c.381 5.263 4.77 9.279 9.964 9.279.242 0 .486-.009.732-.026 5.508-.398 9.65-5.187 9.252-10.696zm4.558 63.586l-2.586-36.073c-.395-5.509-5.187-9.652-10.69-9.259-5.509.395-9.654 5.181-9.26 10.689l2.586 36.077c.164 2.275-1.366 6.781-2.731 8.289-5.053.503-8.998 4.766-8.998 9.951 0 5.522 4.477 10 10 10 5.057 0 9.727-2.146 13.504-6.205 6.011-6.459 8.662-16.697 8.175-23.469z"/><path d="M466.431 62.097h-22.023V22.089C444.408 9.909 434.499 0 422.319 0H84.406c-12.18 0-22.089 9.909-22.089 22.089v74.384c-19.77 4.552-34.561 22.282-34.561 43.414v63.544c0 24.57 19.989 44.56 44.56 44.56h146.588c13.541 0 24.559 11.017 24.559 24.558v20.131h-18.746a10.001 10.001 0 0 0-9.98 9.355l-9.599 148.367c-1.136 17.579 4.704 34.585 16.023 46.66 9.031 9.634 20.503 14.939 32.302 14.939 11.798 0 23.269-5.306 32.301-14.939 11.318-12.074 17.158-29.08 16.021-46.66l-9.597-148.367a10 10 0 0 0-9.979-9.355h-18.747v-20.131c0-24.569-19.989-44.558-44.559-44.558H72.317c-13.543 0-24.56-11.018-24.56-24.56v-63.544c0-9.982 5.989-18.586 14.561-22.423v71.311c0 12.179 9.909 22.087 22.089 22.087H422.32c12.18 0 22.089-9.908 22.089-22.087v-40.011h22.023c9.822 0 17.814-7.992 17.814-17.814V79.912c0-9.823-7.992-17.815-17.815-17.815zM272.837 312.679l8.991 139.012c.781 12.083-3.103 23.635-10.655 31.691-5.21 5.558-11.499 8.618-17.709 8.618-6.211 0-12.5-3.06-17.711-8.619-7.552-8.056-11.436-19.607-10.655-31.69l8.994-139.012h38.745zm149.482-121.818H84.406c-1.133 0-2.089-.955-2.089-2.087V22.089c0-1.132.956-2.089 2.089-2.089h337.913c1.132 0 2.089.957 2.089 2.089v166.685c0 1.131-.957 2.087-2.089 2.087zm41.927-62.097h-19.838V82.097h19.838v46.667z"/><path d="M318.509 32.805H146.07c-5.523 0-10 4.477-10 10s4.477 10 10 10h172.438c5.523 0 10-4.477 10-10 .001-5.523-4.477-10-9.999-10zm32.613 0h-1.363c-5.523 0-10 4.477-10 10s4.477 10 10 10h1.363c5.522 0 10-4.477 10-10s-4.478-10-10-10z"/></g></svg>