<svg xmlns="http://www.w3.org/2000/svg" viewBox="0 0 866.6 472.12" version="1"><path d="M751.502 474.681c3.231-12.583-15.923-29.773 5.569-34.71-.41-14.894-1.796-56.647-18.614-29.506-10.754 24.14-25.138-12.6-43.562-.394-23.937-4.189-7.537-23.42-35.68-29.456-21.848-3.849-38.21 10.07-29.743 28.566 5.065 34.368-20.105 28.95-41.26 28.2-16.508 27.216-45.634 10.507-68.014 6.116-21.267 14.772-49.251-47.476-56.647-5.694-.618 36.305-34.994-13.403-53.753 4.737-18.955 14.357-45.31 2.98-53.686-19.469-21.48-3.94-29.98-4.387-29.27-30.95-4.679-22.952-4.584-22.459-27.39-21.3-3.53-9.665-18.463-13.894-14.18-28.44-19.58-1.659-53.691-18.521-67.465-11.758 5.166 11.268-8.864 2.377-13.018 11.536-7.892-3.592 3.266 29.227-14.957 9.882-6.988-15.283-31.823-18.581-32.31-29.05-.45-20.034-27.685-31.329-41.048-16.547-2.254-20.07-28.158-1.273-27.962 9.732 9.862 16.492-.167 31.428-19.8 22.645-26.216 2.085 4.839 23.278-17.894 21.07-7.742 39.04-18.795-4.856-22.096-19.15-9.83-20.214-22.568-40.825-20.314-65.262-3.806-13.067 20.869 10.81 21.584-6.518 15.46 11.585 2.015-11.82 20.795 1.078 32.78-11.63-2.962-38.682 9.025-55.758 8.508-7.186 2.313-18.382-2.487-25.363 8.562-13.036 21.55 9.197 21.667-15.82 20.312-11.319-3.344-32.081 21.25-40.967 4.114 3.806 26.542-13.704 32.698-1.926-5.487-27.73 40.301 6.713 41.942-21.614 14.23-13.215 35.062-22.139 47.29-36.67 25.484.185 24.512 47.254 10.68 60.49-24.388 7.156-15.308-61.342-27.094-17.063-22.647 6.176-11.806 41.721.17 16.33-2.375 25.828 26.437-3.915 32.914 16.623 4.643-6.699 33.38-26.208 19.78-7.08-22.73 5.214 6.745 18.47 19.37 12.28 17.815 1.843 9.29 15.464 32.999 16.104 2.209 11.719 22.987-15.172 24.961 13.216 13.638 32.028 12.394-5.288 18.648-17.663 11.155-14.447 38.372-17.222 19.7 5.467-6.422 17.153-7.979 52.165-32.038 46.886-9.234 14.305 32.386 2.033 34.7-12.81 3.346 3.972 4.631 29.58 9.74 20.72-6.771-9.566 3.858-25.357-14.429-29.264 1.815-12.92 22.916-48.298 15.813-17.833 20.925 18.245-5.887-13.503 12.131-4.448 2.515-10.906 22.266 10.8 11.056 17.093-.353 10.866 4.87 23.976 4.998 3.63 4.932-16.834-13.897-46.764 17.921-33.478 2.481-8.867 18.686-29.654 32.88-23.466 21.895.377 24.04-34.578 35.718-6.947 25.216-12.28 24.747 23.676 5.102 34.133-17.406 22.03 17.731-13.164 23.44-.33 8.758-13.304 36.272 8.412 35.376-14.06 19.005-6.813 18.95 10.017 26.16 18.008 18.746 12.246 5.962-12.078 20.814-11.458 25.68 3.072-1.52-28.42 24.55-29.83 9.493 13.091 11.186-16.998 23.8-5.35 19.72 1.232 24.86-28.396 45.455-14.885 5.238-15.374 24.054-24.54 31.656-32.406-26.375-9.952 19.12-40.149 34.19-45.319 6.016-7.977 28.804-.767 16.28-11.81 6.424-17.81 18.978-8.065 19.208 1.493 25.147 2.389-10.822 24.86-17.839 25.797-8.025 2.89 20.06 18.283 4.251 30.317 6.706-9.871 45.314-5.67 23.305 5.102 6.7 25.546 12.511 48.322-1.38 69.698-14.879 6.905 1.96 42.087 13.564 36.313 7.586 6.87 18.535 4.545 11.53 16.332 20.547 14.026 7.448 40.363 22.43 61.138-16.29 2.099-60.449-31.468-57.266-55.304-6.368-24.226-2.873-48.786-18.928-68.596-10.405 11.565 12.258 38.993-10.59 29.855-22.285 11.398-2.782 48.58 1.414 46.155-14.665 7.86-28.375 19.74-40.332 30.705-22.032 18.537-19.51 64.817-20.318 85.755 10.767-3.033 22.394 10.667 23.37-5.15 24.326-16.52 33.747 32.993 43.318 50.16-3.554 28.476 9.844 76.73-22.428 88.46-9.659-6.933-8.137 17.817-11.42 9.05zm70.26-72.58c-12.515-23.564-28.875-49.318-49.02-66.84-8.536-12.85-17.47-44.735.751-17.938 11.894 14.309 28.742 30.059 48.078 40.207-25.663-.933-1.724 33.113 14.685 38.293-5.09-2.086-7.785 5.21-11.013 9.565zm-6.58-4.88c1.538-6.558.795 5.412 0 0zm-501.05-253.18c-11.647-13.985 1.545-33.18 17.359-23.088-14.126-.998-9.702 38.226-17.359 23.088zm19.37-26.39c4.663-15.804 33.103-18.293 49-13.56 24.528 8.512-30.663 4.053-38.78 11.77-4.227-1.413-7.671 9.331-10.22 1.79z" fill="#3d61ad"/><g fill="#fff"><path d="M533.348 350.813l.221-19.794s-34.198 5.604-34.634-19.424c-.45-25.86 34.412-19.061 34.412-19.061l.211-17.66c-25.318-2.102-50.73 7.802-51.06 35.917-.359 30.768 26.782 39.855 50.85 40.023z"/><path d="M586.249 350.813l-38.49-38.923s26.585-25.37 37.068-36.89c0 0-21.38-.18-24.329 0l-26.884 27.854-.25 19.713c9.95 8.843 28.34 28.094 28.34 28.094z"/><path d="M523.628 210.957c13.322-5.3 27.37 2.5 36.912 11.573 22.176 15.958 44.748 31.369 66.753 47.56 10.082 9.32 6.197 24.31 2.133 35.6-8.973 25.228-16.316 51.02-25.742 76.082-2.749 13.29-16.403 18.215-28.22 16.497-32.646-.468-64.886.818-97.82-.463-14.065-7.627-16.946-25.32-22.116-38.843-7.036-21.24-13.91-42.547-21.041-63.746-3.761-12.006 1.315-25.331 12.932-30.639 25.09-17.837 50.245-35.685 75.456-53.288l.502-.222zm60.967 172.798c4.895-3.142 10.563-22.029 15.588-36.19 6.8-19.166 12.722-38.685 19.203-57.927.721-12.413-13.06-16.792-21.09-23.223-20.045-14.184-39.929-28.684-60.13-42.592-10.656-3.3-18.262 7.46-26.594 12.184-20.213 14.28-40.085 29.047-60.63 42.853-7.152 9.752.342 21.261 3.78 30.875 6.903 22.904 17.836 49.317 25.237 72.084 4.03 4.141 6.953 2.176 27.753 3.032 25.253.102 48.254-.44 73.507-.393z"/></g></svg>
