<svg xmlns="http://www.w3.org/2000/svg" viewBox="0 0 503.607 503.607"><g fill="#3d61ad"><path d="M159.475 428.066c46.164 0 83.934-37.77 83.934-83.934s-37.771-83.934-83.934-83.934-83.934 37.771-83.934 83.934 37.77 83.934 83.934 83.934zm-8.393-150.535v7.846c0 5.036 3.357 8.393 8.393 8.393s8.393-3.357 8.393-8.393v-7.846c33.005 4.166 58.754 32.512 58.754 66.6s-25.749 62.434-58.754 66.6v-7.846c0-5.036-3.357-8.393-8.393-8.393s-8.393 3.357-8.393 8.393v7.846c-33.005-4.166-58.754-32.512-58.754-66.6s25.749-62.434 58.754-66.6z"/><path d="M134.295 360.918c9.233 0 16.787-7.554 16.787-16.787 0-9.233-7.554-16.787-16.787-16.787s-16.787 7.554-16.787 16.787c0 9.233 7.554 16.787 16.787 16.787zm50.361 0c9.233 0 16.787-7.554 16.787-16.787 0-9.233-7.554-16.787-16.787-16.787s-16.787 7.554-16.787 16.787c0 9.233 7.554 16.787 16.787 16.787zm235.016-176.262H302.164c-5.036 0-8.393 3.357-8.393 8.393s3.357 8.393 8.393 8.393h117.508c5.036 0 8.393-3.357 8.393-8.393s-3.357-8.393-8.393-8.393zm0 33.573H302.164c-5.036 0-8.393 3.357-8.393 8.393 0 5.036 3.357 8.393 8.393 8.393h117.508c5.036 0 8.393-3.357 8.393-8.393.001-5.035-3.357-8.393-8.393-8.393z"/><path d="M495.213 109.115h-25.18V25.18c0-14.269-10.911-25.18-25.18-25.18s-25.18 10.911-25.18 25.18v83.934H302.164V25.18c0-14.269-10.911-25.18-25.18-25.18s-25.18 10.911-25.18 25.18v83.934h-25.18c-5.036 0-8.393 3.357-8.393 8.393v62.951c0 1.4.021 2.799.056 4.197H50.361C22.662 184.656 0 207.318 0 235.016v218.23c0 27.698 22.662 50.361 50.361 50.361h218.23c27.443 0 49.929-22.249 51.158-49.598 6.835 4.815 15.223 7.63 24.383 7.63h8.393v33.574c0 5.036 3.357 8.393 8.393 8.393s8.393-3.357 8.393-8.393v-33.574h8.393c23.502 0 41.967-18.466 41.967-41.967v-20.984c0-38.61 13.43-74.702 39.449-103.239 28.538-31.056 44.485-72.184 44.485-114.151v-63.79c.002-5.036-3.356-8.393-8.392-8.393zM436.459 25.18c0-5.036 3.357-8.393 8.393-8.393 5.036 0 8.393 3.357 8.393 8.393v83.934h-16.787V25.18zm-167.869 0c0-5.036 3.357-8.393 8.393-8.393 5.036 0 8.393 3.357 8.393 8.393v83.934H268.59V25.18zm-37.11 220.654c7.47 18.304 17.873 34.847 31.235 49.615 1.679 2.518 4.197 5.036 5.875 7.554v137.652c0 6.715-5.875 12.59-12.59 12.59H62.951c-6.715 0-12.59-5.875-12.59-12.59V247.607c0-6.715 5.875-12.59 12.59-12.59h164.411a169.702 169.702 0 0 0 4.118 10.817zm70.684 207.412c0 18.466-15.108 33.574-33.574 33.574H50.361c-18.466 0-33.574-15.108-33.574-33.574v-218.23c0-18.466 15.108-33.574 33.574-33.574v-.839h169.098a169.122 169.122 0 0 0 3.104 17.626H62.951c-15.948 0-29.377 13.43-29.377 29.377v193.049c0 15.948 13.43 29.377 29.377 29.377H256c15.948 0 29.377-13.43 30.216-29.377v-110.89c10.357 21.131 15.948 44.442 15.948 68.083v55.398zM486.82 180.459c0 38.61-13.43 74.702-39.449 103.239-28.538 31.056-44.485 72.184-44.485 114.151v21.823c0 14.269-10.911 25.18-25.18 25.18h-33.574c-11.946 0-21.535-7.651-24.341-18.514v-28.489c0-37.146-12.502-73.629-35.162-103.057a15.43 15.43 0 0 0-.091-.182c-3.357-4.197-5.875-7.554-9.233-10.911a144.79 144.79 0 0 1-2.62-2.998l-.399-.472c-10.768-12.749-19.656-27.642-26.004-43.348-.194-.487-.391-.973-.581-1.463-.055-.14-.107-.281-.161-.421-5.267-13.735-8.588-28.181-9.684-42.787 0-.95-.224-1.852-.605-2.687-.15-2.735-.234-5.477-.234-8.224v-55.397H486.82v54.557z"/></g></svg>