<svg xmlns="http://www.w3.org/2000/svg" width="512" height="512" viewBox="0 0 44.979 44.979"><path d="M28.502 17.371l-12.011-.004h-.006a1.864 1.864 0 0 0-1.85 1.867l.04 11.565c.004 1.018.83 1.863 1.845 1.863h.007c.574 0 1.086-.287 1.423-.701l.729 11.256c.064 1.006.9 1.762 1.909 1.762h3.804a1.9 1.9 0 0 0 1.908-1.772l.727-11.276c.338.438.849.731 1.425.731h.007c1.016 0 1.841-.86 1.848-1.871l.037-11.544c.003-1.012-.822-1.876-1.842-1.876z" fill="#599a42"/><circle cx="22.491" cy="11.022" r="5.115" fill="#599a42"/><path d="M11.14 9.006l-9.435-.003H1.7c-.801 0-1.455.665-1.453 1.467l.031 9.085c.003.8.652 1.464 1.45 1.464h.005c.451 0 .854-.225 1.118-.55l.573 8.841a1.484 1.484 0 0 0 1.5 1.383h2.989c.791 0 1.446-.602 1.499-1.391l.57-8.859c.266.343.667.575 1.12.575h.005c.798 0 1.446-.677 1.451-1.47l.03-9.07c.001-.793-.647-1.472-1.448-1.472z" fill="#3d61ad"/><circle cx="6.418" cy="4.018" r="4.018" fill="#3d61ad"/><g fill="#3d61ad"><path d="M33.839 9.006l9.436-.003h.004c.802 0 1.455.665 1.453 1.467l-.03 9.085c-.003.8-.652 1.464-1.45 1.464h-.005c-.451 0-.854-.225-1.118-.55l-.572 8.841a1.485 1.485 0 0 1-1.5 1.383h-2.99a1.492 1.492 0 0 1-1.498-1.391l-.57-8.859c-.266.343-.667.575-1.12.575h-.005c-.799 0-1.447-.677-1.451-1.47l-.029-9.07c-.004-.793.644-1.472 1.445-1.472z"/><circle cx="38.562" cy="4.018" r="4.018"/></g></svg>