<svg xmlns="http://www.w3.org/2000/svg" width="512" height="512" viewBox="0 0 612 612"><path d="M181.298 386.264c-29.77 0-53.915 24.145-53.915 53.827 0 29.769 24.145 53.914 53.915 53.914 29.683 0 53.827-24.146 53.827-53.914 0-29.682-24.144-53.827-53.827-53.827zm0 80.827c-14.885 0-27-12.115-27-27 0-14.798 12.115-26.914 27-26.914 14.797 0 26.913 12.115 26.913 26.914 0 14.885-12.115 27-26.913 27zm-46.41-80.804H14.228a8.653 8.653 0 0 0-8.653 8.653v26.256a8.653 8.653 0 0 0 8.653 8.653h96.714c2.526-17.325 11.27-32.63 23.946-43.562zm328.093-.023c-29.684 0-53.827 24.145-53.827 53.827 0 29.769 24.144 53.914 53.827 53.914 29.769 0 53.826-24.146 53.826-53.914.001-29.682-24.057-53.827-53.826-53.827zm0 80.827c-14.885 0-26.914-12.115-26.914-27 0-14.798 12.029-26.914 26.914-26.914 14.884 0 26.913 12.115 26.913 26.914.001 14.885-12.029 27-26.913 27zm140.366-80.827h-21.029V268.658c0-13.759-4.154-27.259-11.856-38.683l-52.701-78.057c-12.809-19.039-34.356-30.462-57.375-30.462h-81.692c-9.52 0-17.308 7.702-17.308 17.308v247.5H227.683c12.635 10.99 21.375 26.222 23.885 43.615h141.144c4.933-34.355 34.529-60.923 70.27-60.923 35.739 0 65.336 26.567 70.355 60.923h70.01a8.623 8.623 0 0 0 8.653-8.654v-26.307a8.624 8.624 0 0 0-8.653-8.654zm-86.194-140.712H409.327a8.624 8.624 0 0 1-8.654-8.654v-59.797c0-4.76 3.896-8.654 8.654-8.654h65.683c2.855 0 5.539 1.384 7.097 3.634l42.145 59.884c4.065 5.712-.089 13.587-7.099 13.587zM320.192 368.956H17.307C7.749 368.956 0 361.208 0 351.649v-77.885c0-9.559 7.749-17.308 17.307-17.308h302.885c9.559 0 17.308 7.749 17.308 17.308v77.885c0 9.559-7.749 17.307-17.308 17.307zm-181.73-138.461H17.307C7.749 230.495 0 222.745 0 213.187v-77.884c0-9.559 7.749-17.308 17.307-17.308h121.154c9.559 0 17.308 7.749 17.308 17.308v77.884c.001 9.558-7.748 17.308-17.307 17.308zm181.73 0H199.039c-9.559 0-17.308-7.749-17.308-17.307v-77.885c0-9.559 7.749-17.307 17.308-17.307h121.154c9.559 0 17.308 7.749 17.308 17.307v77.885c-.001 9.557-7.75 17.307-17.309 17.307z" fill="#3d61ad"/></svg>