<svg xmlns="http://www.w3.org/2000/svg" viewBox="0 0 284.559 284.559"><path stroke-width="10" stroke="black" fill="#3d61ad" d="M4.394 237.739l42.427 42.427a15 15 0 0 0 21.212 0l74.246-74.246 74.246 74.246a15.001 15.001 0 0 0 21.213 0l42.427-42.427c5.858-5.858 5.858-15.355 0-21.213L205.92 142.28l74.245-74.247a14.996 14.996 0 0 0 0-21.213L237.739 4.393c-5.857-5.858-15.356-5.858-21.213.001L142.28 78.639 68.033 4.394c-5.857-5.858-15.356-5.858-21.213 0L4.394 46.82a14.996 14.996 0 0 0 0 21.212l74.245 74.247-74.245 74.247c-5.859 5.858-5.859 15.355 0 21.213z"/></svg>