<svg xmlns="http://www.w3.org/2000/svg" viewBox="0 0 511.999 511.999"><g fill="#3d61ad"><path d="M101.817 185.414h138.131c20.23 0 36.689-16.459 36.689-36.69s-16.458-36.69-36.689-36.69h-33.485a7.508 7.508 0 0 0-7.509 7.509 7.508 7.508 0 0 0 7.509 7.509h33.485c11.949 0 21.671 9.721 21.671 21.672s-9.722 21.672-21.671 21.672H101.817c-4.147 0-7.509 3.361-7.509 7.509s3.362 7.509 7.509 7.509zm-94.308 0h40.912c4.147 0 7.509-3.361 7.509-7.509s-3.362-7.509-7.509-7.509H7.509c-4.147 0-7.509 3.361-7.509 7.509s3.362 7.509 7.509 7.509zm181.14 138.22H7.509A7.508 7.508 0 0 0 0 331.143a7.508 7.508 0 0 0 7.509 7.509h181.14c11.949 0 21.671 9.721 21.671 21.671s-9.722 21.672-21.671 21.672h-33.485a7.508 7.508 0 0 0-7.509 7.509 7.508 7.508 0 0 0 7.509 7.509h33.485c20.23 0 36.689-16.459 36.689-36.69s-16.459-36.689-36.689-36.689z"/><path d="M7.509 244.846h352.836c33.382 0 60.539-27.157 60.539-60.539 0-33.382-27.157-60.539-60.539-60.539-28.732 0-52.107 23.376-52.107 52.107v2.029c0 4.148 3.362 7.509 7.509 7.509s7.509-3.361 7.509-7.509v-2.029c0-20.451 16.639-37.089 37.089-37.089 25.101 0 45.521 20.42 45.521 45.521s-20.42 45.521-45.521 45.521H7.509A7.508 7.508 0 0 0 0 237.337a7.508 7.508 0 0 0 7.509 7.509zm443.951 34.039H300.386a7.508 7.508 0 0 0-7.509 7.509 7.508 7.508 0 0 0 7.509 7.509H451.46c25.101 0 45.521 20.42 45.521 45.521s-20.42 45.522-45.521 45.522c-21.801 0-39.538-17.737-39.538-39.538v-1.181c0-4.148-3.362-7.509-7.509-7.509s-7.509 3.361-7.509 7.509v1.181c0 30.083 24.474 54.556 54.556 54.556 33.382 0 60.539-27.158 60.539-60.54s-27.157-60.539-60.539-60.539zm-204.137 0H7.509A7.508 7.508 0 0 0 0 286.394a7.508 7.508 0 0 0 7.509 7.509h239.814a7.508 7.508 0 0 0 7.509-7.509 7.508 7.508 0 0 0-7.509-7.509z"/></g></svg>