<svg xmlns="http://www.w3.org/2000/svg" viewBox="0 0 339.456 339.456" width="512" height="512"><path d="M297.728 0h-256c-3.072 0-5.12 2.048-5.12 5.12v329.216c0 3.072 2.048 5.12 5.12 5.12h256c3.072 0 5.12-2.048 5.12-5.12V5.12c0-3.072-2.048-5.12-5.12-5.12zm-5.12 329.216H46.848V10.24h245.76v318.976z" fill="#777"/><path d="M273.664 23.04H65.28c-3.072 0-5.12 2.048-5.12 5.12v282.624c0 3.072 2.048 5.12 5.12 5.12h208.384c3.072 0 5.12-2.048 5.12-5.12V28.16c0-2.56-2.048-5.12-5.12-5.12zM70.4 33.28h93.696v178.176H70.4V33.28zm198.144 272.384H70.4v-83.968h198.144v83.968zm0-94.208h-94.208V33.28h94.208v178.176z" fill="#777"/></svg>