<svg xmlns="http://www.w3.org/2000/svg" width="512" height="512" viewBox="0 0 485.69 485.69"><g fill="#3d61ad"><path d="M410.428 34.738h-76.405l5.155 23.852c.634 2.961.603 5.934.271 8.859h54.621V452.98H91.588V67.449h54.637c-.332-2.941-.348-5.914.285-8.891l5.156-23.82H75.248c-9.031 0-16.34 7.324-16.34 16.354v418.243c0 9.016 7.309 16.354 16.34 16.354h335.18c9.031 0 16.354-7.341 16.354-16.354V51.093c.001-9.031-7.323-16.355-16.354-16.355z"/><path d="M355.568 152.949h-111.71c-9.047 0-16.355 7.324-16.355 16.34 0 9.035 7.309 16.355 16.355 16.355h111.71c9.047 0 16.354-7.32 16.354-16.355.002-9.016-7.307-16.34-16.354-16.34zm0 100.305h-111.71c-9.047 0-16.355 7.323-16.355 16.354 0 9.021 7.309 16.357 16.355 16.357h111.71c9.047 0 16.354-7.34 16.354-16.357.002-9.031-7.307-16.354-16.354-16.354zm-236.012-96.462c-6.898 5.82-7.786 16.137-1.965 23.047l23.855 28.27a16.322 16.322 0 0 0 13.699 5.758 16.34 16.34 0 0 0 12.703-7.719l42.914-69.477c4.746-7.688 2.375-17.75-5.312-22.492-7.688-4.777-17.75-2.375-22.497 5.313l-31.066 50.273-9.301-11.012c-5.823-6.91-16.119-7.797-23.03-1.961zm39.164 88.302c-13.554 0-24.535 10.978-24.535 24.517 0 13.543 10.98 24.52 24.535 24.52 13.543 0 24.52-10.977 24.52-24.52 0-13.541-10.977-24.517-24.52-24.517zm196.848 106.265h-111.71c-9.047 0-16.355 7.309-16.355 16.358 0 9.017 7.309 16.34 16.355 16.34h111.71c9.047 0 16.354-7.323 16.354-16.34.002-9.05-7.307-16.358-16.354-16.358zm-196.848-8.16c-13.554 0-24.535 10.977-24.535 24.52 0 13.539 10.98 24.521 24.535 24.521 13.543 0 24.52-10.979 24.52-24.521 0-13.543-10.977-24.52-24.52-24.52zm14.743-267.586h138.73c3.401 0 6.613-1.521 8.746-4.176a11.155 11.155 0 0 0 2.229-9.43L311.686 8.859A11.235 11.235 0 0 0 300.708 0H184.963a11.242 11.242 0 0 0-10.977 8.859l-11.5 53.148c-.695 3.324.125 6.801 2.247 9.43a11.188 11.188 0 0 0 8.73 4.176z"/></g></svg>